<?xml version='1.0' encoding='utf-8'?>
<svg height="439.70mm" viewBox="0.0 0.0 211.10 439.70" width="211.10mm" xmlns="http://www.w3.org/2000/svg" xmlns:cc="http://creativecommons.org/ns#" xmlns:dc="http://purl.org/dc/elements/1.1/" xmlns:inkscape="http://www.inkscape.org/namespaces/inkscape" xmlns:rdf="http://www.w3.org/1999/02/22-rdf-syntax-ns#" xmlns:svg="http://www.w3.org/2000/svg" xmlns:xlink="http://www.w3.org/1999/xlink">
<!--
SlidingDrawer - Sliding drawer box

Created with Boxes.py (https://boxes.hackerspace-bamberg.de/)
Creation date: 2025-11-15 02:27:35
Command line (remove spaces between dashes): boxes SlidingDrawer - -x=150 - -y=50 - -outside=0 - -outside=1 - -spacing=0.5
Url: https://boxes.hackerspace-bamberg.de/SlidingDrawer?FingerJoint_style=rectangular&FingerJoint_surroundingspaces=2.0&FingerJoint_bottom_lip=0.0&FingerJoint_edge_width=1.0&FingerJoint_extra_length=0.0&FingerJoint_finger=2.0&FingerJoint_play=0.0&FingerJoint_space=2.0&FingerJoint_width=1.0&Grooved_arc_angle=120&Grooved_gap=0.1&Grooved_interleave=0&Grooved_inverse=0&Grooved_margin=0.3&Grooved_style=arc&Grooved_tri_angle=30&Grooved_width=0.4&x=150&y=50&h=30&hi=0&outside=0&outside=1&play=0.15&thickness=3.0&format=svg&tabs=0.0&qr_code=0&debug=0&labels=0&labels=1&reference=100.0&inner_corners=loop&burn=0.1&spacing=0.5&language=en&render=2
Url short: https://boxes.hackerspace-bamberg.de/SlidingDrawer?x=150&y=50&outside=0&outside=1&spacing=0.5
SettingsUrl: https://boxes.hackerspace-bamberg.de/SlidingDrawer?FingerJoint_style=rectangular&FingerJoint_surroundingspaces=2.0&FingerJoint_bottom_lip=0.0&FingerJoint_edge_width=1.0&FingerJoint_extra_length=0.0&FingerJoint_finger=2.0&FingerJoint_play=0.0&FingerJoint_space=2.0&FingerJoint_width=1.0&Grooved_arc_angle=120&Grooved_gap=0.1&Grooved_interleave=0&Grooved_inverse=0&Grooved_margin=0.3&Grooved_style=arc&Grooved_tri_angle=30&Grooved_width=0.4&x=150&y=50&h=30&hi=0&outside=0&outside=1&play=0.15&thickness=3.0&format=svg&tabs=0.0&qr_code=0&debug=0&labels=0&labels=1&reference=100.0&inner_corners=loop&burn=0.1&spacing=0.5&language=en&render=2
SettingsUrl short: https://boxes.hackerspace-bamberg.de/SlidingDrawer?x=150&y=50&outside=0&outside=1&spacing=0.5
-->
<title>SlidingDrawer</title>
<metadata>
<rdf:RDF><cc:Work>
<dc:title>Box - SlidingDrawer</dc:title>
<dc:date>2025-11-15 02:27:35</dc:date>
<dc:source>https://boxes.hackerspace-bamberg.de/SlidingDrawer?FingerJoint_style=rectangular&amp;FingerJoint_surroundingspaces=2.0&amp;FingerJoint_bottom_lip=0.0&amp;FingerJoint_edge_width=1.0&amp;FingerJoint_extra_length=0.0&amp;FingerJoint_finger=2.0&amp;FingerJoint_play=0.0&amp;FingerJoint_space=2.0&amp;FingerJoint_width=1.0&amp;Grooved_arc_angle=120&amp;Grooved_gap=0.1&amp;Grooved_interleave=0&amp;Grooved_inverse=0&amp;Grooved_margin=0.3&amp;Grooved_style=arc&amp;Grooved_tri_angle=30&amp;Grooved_width=0.4&amp;x=150&amp;y=50&amp;h=30&amp;hi=0&amp;outside=0&amp;outside=1&amp;play=0.15&amp;thickness=3.0&amp;format=svg&amp;tabs=0.0&amp;qr_code=0&amp;debug=0&amp;labels=0&amp;labels=1&amp;reference=100.0&amp;inner_corners=loop&amp;burn=0.1&amp;spacing=0.5&amp;language=en&amp;render=2</dc:source>
<dc:source>https://boxes.hackerspace-bamberg.de/SlidingDrawer?x=150&amp;y=50&amp;outside=0&amp;outside=1&amp;spacing=0.5</dc:source>
<dc:description>Sliding drawer box

Created with Boxes.py (https://boxes.hackerspace-bamberg.de/)
Command line: boxes SlidingDrawer --FingerJoint_style=rectangular --FingerJoint_surroundingspaces=2.0 --FingerJoint_bottom_lip=0.0 --FingerJoint_edge_width=1.0 --FingerJoint_extra_length=0.0 --FingerJoint_finger=2.0 --FingerJoint_play=0.0 --FingerJoint_space=2.0 --FingerJoint_width=1.0 --Grooved_arc_angle=120 --Grooved_gap=0.1 --Grooved_interleave=0 --Grooved_inverse=0 --Grooved_margin=0.3 --Grooved_style=arc --Grooved_tri_angle=30 --Grooved_width=0.4 --x=150 --y=50 --h=30 --hi=0 --outside=0 --outside=1 --play=0.15 --thickness=3.0 --format=svg --tabs=0.0 --qr_code=0 --debug=0 --labels=0 --labels=1 --reference=100.0 --inner_corners=loop --burn=0.1 --spacing=0.5
Command line short: boxes SlidingDrawer --x=150 --y=50 --outside=0 --outside=1 --spacing=0.5
Url: https://boxes.hackerspace-bamberg.de/SlidingDrawer?FingerJoint_style=rectangular&amp;FingerJoint_surroundingspaces=2.0&amp;FingerJoint_bottom_lip=0.0&amp;FingerJoint_edge_width=1.0&amp;FingerJoint_extra_length=0.0&amp;FingerJoint_finger=2.0&amp;FingerJoint_play=0.0&amp;FingerJoint_space=2.0&amp;FingerJoint_width=1.0&amp;Grooved_arc_angle=120&amp;Grooved_gap=0.1&amp;Grooved_interleave=0&amp;Grooved_inverse=0&amp;Grooved_margin=0.3&amp;Grooved_style=arc&amp;Grooved_tri_angle=30&amp;Grooved_width=0.4&amp;x=150&amp;y=50&amp;h=30&amp;hi=0&amp;outside=0&amp;outside=1&amp;play=0.15&amp;thickness=3.0&amp;format=svg&amp;tabs=0.0&amp;qr_code=0&amp;debug=0&amp;labels=0&amp;labels=1&amp;reference=100.0&amp;inner_corners=loop&amp;burn=0.1&amp;spacing=0.5&amp;language=en&amp;render=2
Url short: https://boxes.hackerspace-bamberg.de/SlidingDrawer?x=150&amp;y=50&amp;outside=0&amp;outside=1&amp;spacing=0.5
SettingsUrl: https://boxes.hackerspace-bamberg.de/SlidingDrawer?FingerJoint_style=rectangular&amp;FingerJoint_surroundingspaces=2.0&amp;FingerJoint_bottom_lip=0.0&amp;FingerJoint_edge_width=1.0&amp;FingerJoint_extra_length=0.0&amp;FingerJoint_finger=2.0&amp;FingerJoint_play=0.0&amp;FingerJoint_space=2.0&amp;FingerJoint_width=1.0&amp;Grooved_arc_angle=120&amp;Grooved_gap=0.1&amp;Grooved_interleave=0&amp;Grooved_inverse=0&amp;Grooved_margin=0.3&amp;Grooved_style=arc&amp;Grooved_tri_angle=30&amp;Grooved_width=0.4&amp;x=150&amp;y=50&amp;h=30&amp;hi=0&amp;outside=0&amp;outside=1&amp;play=0.15&amp;thickness=3.0&amp;format=svg&amp;tabs=0.0&amp;qr_code=0&amp;debug=0&amp;labels=0&amp;labels=1&amp;reference=100.0&amp;inner_corners=loop&amp;burn=0.1&amp;spacing=0.5&amp;language=en&amp;render=2
SettingsUrl short: https://boxes.hackerspace-bamberg.de/SlidingDrawer?x=150&amp;y=50&amp;outside=0&amp;outside=1&amp;spacing=0.5
</dc:description>
</cc:Work></rdf:RDF></metadata>
<g id="p-0" style="fill:none;stroke-linecap:round;stroke-linejoin:round;">
  <path d="M 10.100 429.700 H 110.100 V 419.700 H 10.100 V 429.700 Z" stroke="rgb(0,0,0)" stroke-width="0.20" />
  <text dominant-baseline="hanging" font-size="6px" style="font-family: sans-serif ; font-weight: normal; font-style: normal; fill: rgb(255,0,0)" text-anchor="middle" transform="matrix( 1.000 0.000 0.000 1.000 60.100 421.700 )">100.0mm, burn:0.10mm</text>
</g>
<g id="p-1" style="fill:none;stroke-linecap:round;stroke-linejoin:round;">
  <text dominant-baseline="hanging" font-size="4px" style="font-family: sans-serif ; font-weight: normal; font-style: normal; fill: rgb(255,0,0)" text-anchor="middle" transform="matrix( 1.000 0.000 0.000 1.000 81.650 404.450 )">in box wall</text><path d="M 13.100 418.000 H 24.650 C 24.705 418.000 24.750 417.955 24.750 417.900 V 415.000 C 24.750 414.900 24.650 415.000 24.750 415.000 H 30.550 C 30.650 415.000 30.550 414.900 30.550 415.000 V 417.900 C 30.550 417.955 30.595 418.000 30.650 418.000 H 36.650 C 36.705 418.000 36.750 417.955 36.750 417.900 V 415.000 C 36.750 414.900 36.650 415.000 36.750 415.000 H 42.550 C 42.650 415.000 42.550 414.900 42.550 415.000 V 417.900 C 42.550 417.955 42.595 418.000 42.650 418.000 H 48.650 C 48.705 418.000 48.750 417.955 48.750 417.900 V 415.000 C 48.750 414.900 48.650 415.000 48.750 415.000 H 54.550 C 54.650 415.000 54.550 414.900 54.550 415.000 V 417.900 C 54.550 417.955 54.595 418.000 54.650 418.000 H 60.650 C 60.705 418.000 60.750 417.955 60.750 417.900 V 415.000 C 60.750 414.900 60.650 415.000 60.750 415.000 H 66.550 C 66.650 415.000 66.550 414.900 66.550 415.000 V 417.900 C 66.550 417.955 66.595 418.000 66.650 418.000 H 72.650 C 72.705 418.000 72.750 417.955 72.750 417.900 V 415.000 C 72.750 414.900 72.650 415.000 72.750 415.000 H 78.550 C 78.650 415.000 78.550 414.900 78.550 415.000 V 417.900 C 78.550 417.955 78.595 418.000 78.650 418.000 H 84.650 C 84.705 418.000 84.750 417.955 84.750 417.900 V 415.000 C 84.750 414.900 84.650 415.000 84.750 415.000 H 90.550 C 90.650 415.000 90.550 414.900 90.550 415.000 V 417.900 C 90.550 417.955 90.595 418.000 90.650 418.000 H 96.650 C 96.705 418.000 96.750 417.955 96.750 417.900 V 415.000 C 96.750 414.900 96.650 415.000 96.750 415.000 H 102.550 C 102.650 415.000 102.550 414.900 102.550 415.000 V 417.900 C 102.550 417.955 102.595 418.000 102.650 418.000 H 108.650 C 108.705 418.000 108.750 417.955 108.750 417.900 V 415.000 C 108.750 414.900 108.650 415.000 108.750 415.000 H 114.550 C 114.650 415.000 114.550 414.900 114.550 415.000 V 417.900 C 114.550 417.955 114.595 418.000 114.650 418.000 H 120.650 C 120.705 418.000 120.750 417.955 120.750 417.900 V 415.000 C 120.750 414.900 120.650 415.000 120.750 415.000 H 126.550 C 126.650 415.000 126.550 414.900 126.550 415.000 V 417.900 C 126.550 417.955 126.595 418.000 126.650 418.000 H 132.650 C 132.705 418.000 132.750 417.955 132.750 417.900 V 415.000 C 132.750 414.900 132.650 415.000 132.750 415.000 H 138.550 C 138.650 415.000 138.550 414.900 138.550 415.000 V 417.900 C 138.550 417.955 138.595 418.000 138.650 418.000 H 150.200 H 153.200 C 153.255 418.000 153.300 417.955 153.300 417.900 V 414.900 V 407.850 C 153.300 407.795 153.255 407.750 153.200 407.750 H 150.300 C 150.200 407.750 150.300 407.850 150.300 407.750 V 401.950 C 150.300 401.850 150.200 401.950 150.300 401.950 H 153.200 C 153.255 401.950 153.300 401.905 153.300 401.850 V 394.800 C 153.300 394.745 153.255 394.700 153.200 394.700 H 150.200 H 13.100 H 10.100 C 10.045 394.700 10.000 394.745 10.000 394.800 V 401.850 C 10.000 401.905 10.045 401.950 10.100 401.950 H 13.000 C 13.100 401.950 13.000 401.850 13.000 401.950 V 407.750 C 13.000 407.850 13.100 407.750 13.000 407.750 H 10.100 C 10.045 407.750 10.000 407.795 10.000 407.850 V 414.900 V 417.900 C 10.000 417.955 10.045 418.000 10.100 418.000 H 13.100" stroke="rgb(0,0,0)" stroke-width="0.20" />
</g>
<g id="p-2" style="fill:none;stroke-linecap:round;stroke-linejoin:round;">
  <text dominant-baseline="hanging" font-size="4px" style="font-family: sans-serif ; font-weight: normal; font-style: normal; fill: rgb(255,0,0)" text-anchor="middle" transform="matrix( 1.000 0.000 0.000 1.000 177.950 404.450 )">in box wall</text><path d="M 157.900 415.000 H 168.850 C 168.950 415.000 168.850 414.900 168.850 415.000 V 417.900 C 168.850 417.955 168.895 418.000 168.950 418.000 H 174.950 C 175.005 418.000 175.050 417.955 175.050 417.900 V 415.000 C 175.050 414.900 174.950 415.000 175.050 415.000 H 180.850 C 180.950 415.000 180.850 414.900 180.850 415.000 V 417.900 C 180.850 417.955 180.895 418.000 180.950 418.000 H 186.950 C 187.005 418.000 187.050 417.955 187.050 417.900 V 415.000 C 187.050 414.900 186.950 415.000 187.050 415.000 H 198.000 C 198.055 415.000 198.100 414.955 198.100 414.900 V 407.950 C 198.100 407.850 198.000 407.950 198.100 407.950 H 201.000 C 201.055 407.950 201.100 407.905 201.100 407.850 V 401.850 C 201.100 401.795 201.055 401.750 201.000 401.750 H 198.100 C 198.000 401.750 198.100 401.850 198.100 401.750 V 394.800 C 198.100 394.745 198.055 394.700 198.000 394.700 H 157.900 C 157.845 394.700 157.800 394.745 157.800 394.800 V 401.750 C 157.800 401.850 157.900 401.750 157.800 401.750 H 154.900 C 154.845 401.750 154.800 401.795 154.800 401.850 V 407.850 C 154.800 407.905 154.845 407.950 154.900 407.950 H 157.800 C 157.900 407.950 157.800 407.850 157.800 407.950 V 414.900 C 157.800 414.955 157.845 415.000 157.900 415.000" stroke="rgb(0,0,0)" stroke-width="0.20" />
</g>
<g id="p-3" style="fill:none;stroke-linecap:round;stroke-linejoin:round;">
  <text dominant-baseline="hanging" font-size="4px" style="font-family: sans-serif ; font-weight: normal; font-style: normal; fill: rgb(255,0,0)" text-anchor="middle" transform="matrix( 1.000 0.000 0.000 1.000 177.950 379.650 )">in box wall</text><path d="M 157.900 390.200 H 168.850 C 168.950 390.200 168.850 390.100 168.850 390.200 V 393.100 C 168.850 393.155 168.895 393.200 168.950 393.200 H 174.950 C 175.005 393.200 175.050 393.155 175.050 393.100 V 390.200 C 175.050 390.100 174.950 390.200 175.050 390.200 H 180.850 C 180.950 390.200 180.850 390.100 180.850 390.200 V 393.100 C 180.850 393.155 180.895 393.200 180.950 393.200 H 186.950 C 187.005 393.200 187.050 393.155 187.050 393.100 V 390.200 C 187.050 390.100 186.950 390.200 187.050 390.200 H 198.000 C 198.055 390.200 198.100 390.155 198.100 390.100 V 383.150 C 198.100 383.050 198.000 383.150 198.100 383.150 H 201.000 C 201.055 383.150 201.100 383.105 201.100 383.050 V 377.050 C 201.100 376.995 201.055 376.950 201.000 376.950 H 198.100 C 198.000 376.950 198.100 377.050 198.100 376.950 V 370.000 C 198.100 369.945 198.055 369.900 198.000 369.900 H 157.900 C 157.845 369.900 157.800 369.945 157.800 370.000 V 376.950 C 157.800 377.050 157.900 376.950 157.800 376.950 H 154.900 C 154.845 376.950 154.800 376.995 154.800 377.050 V 383.050 C 154.800 383.105 154.845 383.150 154.900 383.150 H 157.800 C 157.900 383.150 157.800 383.050 157.800 383.150 V 390.100 C 157.800 390.155 157.845 390.200 157.900 390.200" stroke="rgb(0,0,0)" stroke-width="0.20" />
</g>
<g id="p-4" style="fill:none;stroke-linecap:round;stroke-linejoin:round;">
  <text dominant-baseline="hanging" font-size="4px" style="font-family: sans-serif ; font-weight: normal; font-style: normal; fill: rgb(255,0,0)" text-anchor="middle" transform="matrix( 1.000 0.000 0.000 1.000 81.650 379.650 )">in box wall</text><path d="M 13.100 393.200 H 24.650 C 24.705 393.200 24.750 393.155 24.750 393.100 V 390.200 C 24.750 390.100 24.650 390.200 24.750 390.200 H 30.550 C 30.650 390.200 30.550 390.100 30.550 390.200 V 393.100 C 30.550 393.155 30.595 393.200 30.650 393.200 H 36.650 C 36.705 393.200 36.750 393.155 36.750 393.100 V 390.200 C 36.750 390.100 36.650 390.200 36.750 390.200 H 42.550 C 42.650 390.200 42.550 390.100 42.550 390.200 V 393.100 C 42.550 393.155 42.595 393.200 42.650 393.200 H 48.650 C 48.705 393.200 48.750 393.155 48.750 393.100 V 390.200 C 48.750 390.100 48.650 390.200 48.750 390.200 H 54.550 C 54.650 390.200 54.550 390.100 54.550 390.200 V 393.100 C 54.550 393.155 54.595 393.200 54.650 393.200 H 60.650 C 60.705 393.200 60.750 393.155 60.750 393.100 V 390.200 C 60.750 390.100 60.650 390.200 60.750 390.200 H 66.550 C 66.650 390.200 66.550 390.100 66.550 390.200 V 393.100 C 66.550 393.155 66.595 393.200 66.650 393.200 H 72.650 C 72.705 393.200 72.750 393.155 72.750 393.100 V 390.200 C 72.750 390.100 72.650 390.200 72.750 390.200 H 78.550 C 78.650 390.200 78.550 390.100 78.550 390.200 V 393.100 C 78.550 393.155 78.595 393.200 78.650 393.200 H 84.650 C 84.705 393.200 84.750 393.155 84.750 393.100 V 390.200 C 84.750 390.100 84.650 390.200 84.750 390.200 H 90.550 C 90.650 390.200 90.550 390.100 90.550 390.200 V 393.100 C 90.550 393.155 90.595 393.200 90.650 393.200 H 96.650 C 96.705 393.200 96.750 393.155 96.750 393.100 V 390.200 C 96.750 390.100 96.650 390.200 96.750 390.200 H 102.550 C 102.650 390.200 102.550 390.100 102.550 390.200 V 393.100 C 102.550 393.155 102.595 393.200 102.650 393.200 H 108.650 C 108.705 393.200 108.750 393.155 108.750 393.100 V 390.200 C 108.750 390.100 108.650 390.200 108.750 390.200 H 114.550 C 114.650 390.200 114.550 390.100 114.550 390.200 V 393.100 C 114.550 393.155 114.595 393.200 114.650 393.200 H 120.650 C 120.705 393.200 120.750 393.155 120.750 393.100 V 390.200 C 120.750 390.100 120.650 390.200 120.750 390.200 H 126.550 C 126.650 390.200 126.550 390.100 126.550 390.200 V 393.100 C 126.550 393.155 126.595 393.200 126.650 393.200 H 132.650 C 132.705 393.200 132.750 393.155 132.750 393.100 V 390.200 C 132.750 390.100 132.650 390.200 132.750 390.200 H 138.550 C 138.650 390.200 138.550 390.100 138.550 390.200 V 393.100 C 138.550 393.155 138.595 393.200 138.650 393.200 H 150.200 H 153.200 C 153.255 393.200 153.300 393.155 153.300 393.100 V 390.100 V 383.050 C 153.300 382.995 153.255 382.950 153.200 382.950 H 150.300 C 150.200 382.950 150.300 383.050 150.300 382.950 V 377.150 C 150.300 377.050 150.200 377.150 150.300 377.150 H 153.200 C 153.255 377.150 153.300 377.105 153.300 377.050 V 370.000 C 153.300 369.945 153.255 369.900 153.200 369.900 H 150.200 H 109.070 C 109.034 369.900 109.001 369.919 108.983 369.950 C 106.213 374.748 102.229 378.732 97.431 381.502 C 92.633 384.273 87.190 385.731 81.650 385.731 C 76.110 385.731 70.667 384.273 65.869 381.502 C 61.071 378.732 57.087 374.748 54.317 369.950 C 54.299 369.919 54.266 369.900 54.230 369.900 H 13.100 H 10.100 C 10.045 369.900 10.000 369.945 10.000 370.000 V 377.050 C 10.000 377.105 10.045 377.150 10.100 377.150 H 13.000 C 13.100 377.150 13.000 377.050 13.000 377.150 V 382.950 C 13.000 383.050 13.100 382.950 13.000 382.950 H 10.100 C 10.045 382.950 10.000 382.995 10.000 383.050 V 390.100 V 393.100 C 10.000 393.155 10.045 393.200 10.100 393.200 H 13.100" stroke="rgb(0,0,0)" stroke-width="0.20" />
</g>
<g id="p-5" style="fill:none;stroke-linecap:round;stroke-linejoin:round;">
  <text dominant-baseline="hanging" font-size="4px" style="font-family: sans-serif ; font-weight: normal; font-style: normal; fill: rgb(255,0,0)" text-anchor="middle" transform="matrix( 1.000 0.000 0.000 1.000 33.150 294.850 )">in box bottom</text><path d="M 13.100 368.400 H 24.150 C 24.205 368.400 24.250 368.355 24.250 368.300 V 365.400 C 24.250 365.300 24.150 365.400 24.250 365.400 H 30.050 C 30.150 365.400 30.050 365.300 30.050 365.400 V 368.300 C 30.050 368.355 30.095 368.400 30.150 368.400 H 36.150 C 36.205 368.400 36.250 368.355 36.250 368.300 V 365.400 C 36.250 365.300 36.150 365.400 36.250 365.400 H 42.050 C 42.150 365.400 42.050 365.300 42.050 365.400 V 368.300 C 42.050 368.355 42.095 368.400 42.150 368.400 H 53.200 C 53.255 368.400 53.300 368.355 53.300 368.300 V 365.300 V 353.850 C 53.300 353.750 53.200 353.850 53.300 353.850 H 56.200 C 56.255 353.850 56.300 353.805 56.300 353.750 V 347.750 C 56.300 347.695 56.255 347.650 56.200 347.650 H 53.300 C 53.200 347.650 53.300 347.750 53.300 347.650 V 341.850 C 53.300 341.750 53.200 341.850 53.300 341.850 H 56.200 C 56.255 341.850 56.300 341.805 56.300 341.750 V 335.750 C 56.300 335.695 56.255 335.650 56.200 335.650 H 53.300 C 53.200 335.650 53.300 335.750 53.300 335.650 V 329.850 C 53.300 329.750 53.200 329.850 53.300 329.850 H 56.200 C 56.255 329.850 56.300 329.805 56.300 329.750 V 323.750 C 56.300 323.695 56.255 323.650 56.200 323.650 H 53.300 C 53.200 323.650 53.300 323.750 53.300 323.650 V 317.850 C 53.300 317.750 53.200 317.850 53.300 317.850 H 56.200 C 56.255 317.850 56.300 317.805 56.300 317.750 V 311.750 C 56.300 311.695 56.255 311.650 56.200 311.650 H 53.300 C 53.200 311.650 53.300 311.750 53.300 311.650 V 305.850 C 53.300 305.750 53.200 305.850 53.300 305.850 H 56.200 C 56.255 305.850 56.300 305.805 56.300 305.750 V 299.750 C 56.300 299.695 56.255 299.650 56.200 299.650 H 53.300 C 53.200 299.650 53.300 299.750 53.300 299.650 V 293.850 C 53.300 293.750 53.200 293.850 53.300 293.850 H 56.200 C 56.255 293.850 56.300 293.805 56.300 293.750 V 287.750 C 56.300 287.695 56.255 287.650 56.200 287.650 H 53.300 C 53.200 287.650 53.300 287.750 53.300 287.650 V 281.850 C 53.300 281.750 53.200 281.850 53.300 281.850 H 56.200 C 56.255 281.850 56.300 281.805 56.300 281.750 V 275.750 C 56.300 275.695 56.255 275.650 56.200 275.650 H 53.300 C 53.200 275.650 53.300 275.750 53.300 275.650 V 269.850 C 53.300 269.750 53.200 269.850 53.300 269.850 H 56.200 C 56.255 269.850 56.300 269.805 56.300 269.750 V 263.750 C 56.300 263.695 56.255 263.650 56.200 263.650 H 53.300 C 53.200 263.650 53.300 263.750 53.300 263.650 V 257.850 C 53.300 257.750 53.200 257.850 53.300 257.850 H 56.200 C 56.255 257.850 56.300 257.805 56.300 257.750 V 251.750 C 56.300 251.695 56.255 251.650 56.200 251.650 H 53.300 C 53.200 251.650 53.300 251.750 53.300 251.650 V 245.850 C 53.300 245.750 53.200 245.850 53.300 245.850 H 56.200 C 56.255 245.850 56.300 245.805 56.300 245.750 V 239.750 C 56.300 239.695 56.255 239.650 56.200 239.650 H 53.300 C 53.200 239.650 53.300 239.750 53.300 239.650 V 228.200 V 225.200 C 53.300 225.145 53.255 225.100 53.200 225.100 H 42.150 C 42.095 225.100 42.050 225.145 42.050 225.200 V 228.100 C 42.050 228.200 42.150 228.100 42.050 228.100 H 36.250 C 36.150 228.100 36.250 228.200 36.250 228.100 V 225.200 C 36.250 225.145 36.205 225.100 36.150 225.100 H 30.150 C 30.095 225.100 30.050 225.145 30.050 225.200 V 228.100 C 30.050 228.200 30.150 228.100 30.050 228.100 H 24.250 C 24.150 228.100 24.250 228.200 24.250 228.100 V 225.200 C 24.250 225.145 24.205 225.100 24.150 225.100 H 13.100 C 13.045 225.100 13.000 225.145 13.000 225.200 V 228.200 V 239.650 C 13.000 239.750 13.100 239.650 13.000 239.650 H 10.100 C 10.045 239.650 10.000 239.695 10.000 239.750 V 245.750 C 10.000 245.805 10.045 245.850 10.100 245.850 H 13.000 C 13.100 245.850 13.000 245.750 13.000 245.850 V 251.650 C 13.000 251.750 13.100 251.650 13.000 251.650 H 10.100 C 10.045 251.650 10.000 251.695 10.000 251.750 V 257.750 C 10.000 257.805 10.045 257.850 10.100 257.850 H 13.000 C 13.100 257.850 13.000 257.750 13.000 257.850 V 263.650 C 13.000 263.750 13.100 263.650 13.000 263.650 H 10.100 C 10.045 263.650 10.000 263.695 10.000 263.750 V 269.750 C 10.000 269.805 10.045 269.850 10.100 269.850 H 13.000 C 13.100 269.850 13.000 269.750 13.000 269.850 V 275.650 C 13.000 275.750 13.100 275.650 13.000 275.650 H 10.100 C 10.045 275.650 10.000 275.695 10.000 275.750 V 281.750 C 10.000 281.805 10.045 281.850 10.100 281.850 H 13.000 C 13.100 281.850 13.000 281.750 13.000 281.850 V 287.650 C 13.000 287.750 13.100 287.650 13.000 287.650 H 10.100 C 10.045 287.650 10.000 287.695 10.000 287.750 V 293.750 C 10.000 293.805 10.045 293.850 10.100 293.850 H 13.000 C 13.100 293.850 13.000 293.750 13.000 293.850 V 299.650 C 13.000 299.750 13.100 299.650 13.000 299.650 H 10.100 C 10.045 299.650 10.000 299.695 10.000 299.750 V 305.750 C 10.000 305.805 10.045 305.850 10.100 305.850 H 13.000 C 13.100 305.850 13.000 305.750 13.000 305.850 V 311.650 C 13.000 311.750 13.100 311.650 13.000 311.650 H 10.100 C 10.045 311.650 10.000 311.695 10.000 311.750 V 317.750 C 10.000 317.805 10.045 317.850 10.100 317.850 H 13.000 C 13.100 317.850 13.000 317.750 13.000 317.850 V 323.650 C 13.000 323.750 13.100 323.650 13.000 323.650 H 10.100 C 10.045 323.650 10.000 323.695 10.000 323.750 V 329.750 C 10.000 329.805 10.045 329.850 10.100 329.850 H 13.000 C 13.100 329.850 13.000 329.750 13.000 329.850 V 335.650 C 13.000 335.750 13.100 335.650 13.000 335.650 H 10.100 C 10.045 335.650 10.000 335.695 10.000 335.750 V 341.750 C 10.000 341.805 10.045 341.850 10.100 341.850 H 13.000 C 13.100 341.850 13.000 341.750 13.000 341.850 V 347.650 C 13.000 347.750 13.100 347.650 13.000 347.650 H 10.100 C 10.045 347.650 10.000 347.695 10.000 347.750 V 353.750 C 10.000 353.805 10.045 353.850 10.100 353.850 H 13.000 C 13.100 353.850 13.000 353.750 13.000 353.850 V 365.300 V 368.300 C 13.000 368.355 13.045 368.400 13.100 368.400" stroke="rgb(0,0,0)" stroke-width="0.20" />
</g>
<g id="p-6" style="fill:none;stroke-linecap:round;stroke-linejoin:round;">
  <text dominant-baseline="hanging" font-size="4px" style="font-family: sans-serif ; font-weight: normal; font-style: normal; fill: rgb(255,0,0)" text-anchor="middle" transform="matrix( 1.000 0.000 0.000 1.000 35.100 146.600 )">out box bottom</text><path d="M 10.100 223.600 H 18.600 C 18.655 223.600 18.700 223.555 18.700 223.500 V 220.600 C 18.700 220.500 18.600 220.600 18.700 220.600 H 24.500 C 24.600 220.600 24.500 220.500 24.500 220.600 V 223.500 C 24.500 223.555 24.545 223.600 24.600 223.600 H 30.600 C 30.655 223.600 30.700 223.555 30.700 223.500 V 220.600 C 30.700 220.500 30.600 220.600 30.700 220.600 H 36.500 C 36.600 220.600 36.500 220.500 36.500 220.600 V 223.500 C 36.500 223.555 36.545 223.600 36.600 223.600 H 42.600 C 42.655 223.600 42.700 223.555 42.700 223.500 V 220.600 C 42.700 220.500 42.600 220.600 42.700 220.600 H 48.500 C 48.600 220.600 48.500 220.500 48.500 220.600 V 223.500 C 48.500 223.555 48.545 223.600 48.600 223.600 H 57.100 H 60.100 C 60.155 223.600 60.200 223.555 60.200 223.500 V 220.500 V 211.500 C 60.200 211.445 60.155 211.400 60.100 211.400 H 57.200 C 57.100 211.400 57.200 211.500 57.200 211.400 V 205.600 C 57.200 205.500 57.100 205.600 57.200 205.600 H 60.100 C 60.155 205.600 60.200 205.555 60.200 205.500 V 199.500 C 60.200 199.445 60.155 199.400 60.100 199.400 H 57.200 C 57.100 199.400 57.200 199.500 57.200 199.400 V 193.600 C 57.200 193.500 57.100 193.600 57.200 193.600 H 60.100 C 60.155 193.600 60.200 193.555 60.200 193.500 V 187.500 C 60.200 187.445 60.155 187.400 60.100 187.400 H 57.200 C 57.100 187.400 57.200 187.500 57.200 187.400 V 181.600 C 57.200 181.500 57.100 181.600 57.200 181.600 H 60.100 C 60.155 181.600 60.200 181.555 60.200 181.500 V 175.500 C 60.200 175.445 60.155 175.400 60.100 175.400 H 57.200 C 57.100 175.400 57.200 175.500 57.200 175.400 V 169.600 C 57.200 169.500 57.100 169.600 57.200 169.600 H 60.100 C 60.155 169.600 60.200 169.555 60.200 169.500 V 163.500 C 60.200 163.445 60.155 163.400 60.100 163.400 H 57.200 C 57.100 163.400 57.200 163.500 57.200 163.400 V 157.600 C 57.200 157.500 57.100 157.600 57.200 157.600 H 60.100 C 60.155 157.600 60.200 157.555 60.200 157.500 V 151.500 C 60.200 151.445 60.155 151.400 60.100 151.400 H 57.200 C 57.100 151.400 57.200 151.500 57.200 151.400 V 145.600 C 57.200 145.500 57.100 145.600 57.200 145.600 H 60.100 C 60.155 145.600 60.200 145.555 60.200 145.500 V 139.500 C 60.200 139.445 60.155 139.400 60.100 139.400 H 57.200 C 57.100 139.400 57.200 139.500 57.200 139.400 V 133.600 C 57.200 133.500 57.100 133.600 57.200 133.600 H 60.100 C 60.155 133.600 60.200 133.555 60.200 133.500 V 127.500 C 60.200 127.445 60.155 127.400 60.100 127.400 H 57.200 C 57.100 127.400 57.200 127.500 57.200 127.400 V 121.600 C 57.200 121.500 57.100 121.600 57.200 121.600 H 60.100 C 60.155 121.600 60.200 121.555 60.200 121.500 V 115.500 C 60.200 115.445 60.155 115.400 60.100 115.400 H 57.200 C 57.100 115.400 57.200 115.500 57.200 115.400 V 109.600 C 57.200 109.500 57.100 109.600 57.200 109.600 H 60.100 C 60.155 109.600 60.200 109.555 60.200 109.500 V 103.500 C 60.200 103.445 60.155 103.400 60.100 103.400 H 57.200 C 57.100 103.400 57.200 103.500 57.200 103.400 V 97.600 C 57.200 97.500 57.100 97.600 57.200 97.600 H 60.100 C 60.155 97.600 60.200 97.555 60.200 97.500 V 91.500 C 60.200 91.445 60.155 91.400 60.100 91.400 H 57.200 C 57.100 91.400 57.200 91.500 57.200 91.400 V 85.600 C 57.200 85.500 57.100 85.600 57.200 85.600 H 60.100 C 60.155 85.600 60.200 85.555 60.200 85.500 V 76.500 V 73.500 C 60.200 73.445 60.155 73.400 60.100 73.400 H 57.100 H 48.600 C 48.545 73.400 48.500 73.445 48.500 73.500 V 76.400 C 48.500 76.500 48.600 76.400 48.500 76.400 H 42.700 C 42.600 76.400 42.700 76.500 42.700 76.400 V 73.500 C 42.700 73.445 42.655 73.400 42.600 73.400 H 36.600 C 36.545 73.400 36.500 73.445 36.500 73.500 V 76.400 C 36.500 76.500 36.600 76.400 36.500 76.400 H 30.700 C 30.600 76.400 30.700 76.500 30.700 76.400 V 73.500 C 30.700 73.445 30.655 73.400 30.600 73.400 H 24.600 C 24.545 73.400 24.500 73.445 24.500 73.500 V 76.400 C 24.500 76.500 24.600 76.400 24.500 76.400 H 18.700 C 18.600 76.400 18.700 76.500 18.700 76.400 V 73.500 C 18.700 73.445 18.655 73.400 18.600 73.400 H 10.100 C 10.045 73.400 10.000 73.445 10.000 73.500 V 76.500 V 220.500 V 223.500 C 10.000 223.555 10.045 223.600 10.100 223.600" stroke="rgb(0,0,0)" stroke-width="0.20" />
</g>
<g id="p-7" style="fill:none;stroke-linecap:round;stroke-linejoin:round;">
  <text dominant-baseline="hanging" font-size="4px" style="font-family: sans-serif ; font-weight: normal; font-style: normal; fill: rgb(255,0,0)" text-anchor="middle" transform="matrix( 1.000 0.000 0.000 1.000 86.800 146.600 )">out box top</text><path d="M 61.800 223.600 H 70.300 C 70.355 223.600 70.400 223.555 70.400 223.500 V 220.600 C 70.400 220.500 70.300 220.600 70.400 220.600 H 76.200 C 76.300 220.600 76.200 220.500 76.200 220.600 V 223.500 C 76.200 223.555 76.245 223.600 76.300 223.600 H 82.300 C 82.355 223.600 82.400 223.555 82.400 223.500 V 220.600 C 82.400 220.500 82.300 220.600 82.400 220.600 H 88.200 C 88.300 220.600 88.200 220.500 88.200 220.600 V 223.500 C 88.200 223.555 88.245 223.600 88.300 223.600 H 94.300 C 94.355 223.600 94.400 223.555 94.400 223.500 V 220.600 C 94.400 220.500 94.300 220.600 94.400 220.600 H 100.200 C 100.300 220.600 100.200 220.500 100.200 220.600 V 223.500 C 100.200 223.555 100.245 223.600 100.300 223.600 H 108.800 H 111.800 C 111.855 223.600 111.900 223.555 111.900 223.500 V 220.500 V 211.500 C 111.900 211.445 111.855 211.400 111.800 211.400 H 108.900 C 108.800 211.400 108.900 211.500 108.900 211.400 V 205.600 C 108.900 205.500 108.800 205.600 108.900 205.600 H 111.800 C 111.855 205.600 111.900 205.555 111.900 205.500 V 199.500 C 111.900 199.445 111.855 199.400 111.800 199.400 H 108.900 C 108.800 199.400 108.900 199.500 108.900 199.400 V 193.600 C 108.900 193.500 108.800 193.600 108.900 193.600 H 111.800 C 111.855 193.600 111.900 193.555 111.900 193.500 V 187.500 C 111.900 187.445 111.855 187.400 111.800 187.400 H 108.900 C 108.800 187.400 108.900 187.500 108.900 187.400 V 181.600 C 108.900 181.500 108.800 181.600 108.900 181.600 H 111.800 C 111.855 181.600 111.900 181.555 111.900 181.500 V 175.500 C 111.900 175.445 111.855 175.400 111.800 175.400 H 108.900 C 108.800 175.400 108.900 175.500 108.900 175.400 V 169.600 C 108.900 169.500 108.800 169.600 108.900 169.600 H 111.800 C 111.855 169.600 111.900 169.555 111.900 169.500 V 163.500 C 111.900 163.445 111.855 163.400 111.800 163.400 H 108.900 C 108.800 163.400 108.900 163.500 108.900 163.400 V 157.600 C 108.900 157.500 108.800 157.600 108.900 157.600 H 111.800 C 111.855 157.600 111.900 157.555 111.900 157.500 V 151.500 C 111.900 151.445 111.855 151.400 111.800 151.400 H 108.900 C 108.800 151.400 108.900 151.500 108.900 151.400 V 145.600 C 108.900 145.500 108.800 145.600 108.900 145.600 H 111.800 C 111.855 145.600 111.900 145.555 111.900 145.500 V 139.500 C 111.900 139.445 111.855 139.400 111.800 139.400 H 108.900 C 108.800 139.400 108.900 139.500 108.900 139.400 V 133.600 C 108.900 133.500 108.800 133.600 108.900 133.600 H 111.800 C 111.855 133.600 111.900 133.555 111.900 133.500 V 127.500 C 111.900 127.445 111.855 127.400 111.800 127.400 H 108.900 C 108.800 127.400 108.900 127.500 108.900 127.400 V 121.600 C 108.900 121.500 108.800 121.600 108.900 121.600 H 111.800 C 111.855 121.600 111.900 121.555 111.900 121.500 V 115.500 C 111.900 115.445 111.855 115.400 111.800 115.400 H 108.900 C 108.800 115.400 108.900 115.500 108.900 115.400 V 109.600 C 108.900 109.500 108.800 109.600 108.900 109.600 H 111.800 C 111.855 109.600 111.900 109.555 111.900 109.500 V 103.500 C 111.900 103.445 111.855 103.400 111.800 103.400 H 108.900 C 108.800 103.400 108.900 103.500 108.900 103.400 V 97.600 C 108.900 97.500 108.800 97.600 108.900 97.600 H 111.800 C 111.855 97.600 111.900 97.555 111.900 97.500 V 91.500 C 111.900 91.445 111.855 91.400 111.800 91.400 H 108.900 C 108.800 91.400 108.900 91.500 108.900 91.400 V 85.600 C 108.900 85.500 108.800 85.600 108.900 85.600 H 111.800 C 111.855 85.600 111.900 85.555 111.900 85.500 V 76.500 V 73.500 C 111.900 73.445 111.855 73.400 111.800 73.400 H 108.800 H 100.300 C 100.245 73.400 100.200 73.445 100.200 73.500 V 76.400 C 100.200 76.500 100.300 76.400 100.200 76.400 H 94.400 C 94.300 76.400 94.400 76.500 94.400 76.400 V 73.500 C 94.400 73.445 94.355 73.400 94.300 73.400 H 88.300 C 88.245 73.400 88.200 73.445 88.200 73.500 V 76.400 C 88.200 76.500 88.300 76.400 88.200 76.400 H 82.400 C 82.300 76.400 82.400 76.500 82.400 76.400 V 73.500 C 82.400 73.445 82.355 73.400 82.300 73.400 H 76.300 C 76.245 73.400 76.200 73.445 76.200 73.500 V 76.400 C 76.200 76.500 76.300 76.400 76.200 76.400 H 70.400 C 70.300 76.400 70.400 76.500 70.400 76.400 V 73.500 C 70.400 73.445 70.355 73.400 70.300 73.400 H 61.800 C 61.745 73.400 61.700 73.445 61.700 73.500 V 76.500 V 220.500 V 223.500 C 61.700 223.555 61.745 223.600 61.800 223.600" stroke="rgb(0,0,0)" stroke-width="0.20" />
</g>
<g id="p-8" style="fill:none;stroke-linecap:round;stroke-linejoin:round;">
  <text dominant-baseline="hanging" font-size="4px" style="font-family: sans-serif ; font-weight: normal; font-style: normal; fill: rgb(255,0,0)" text-anchor="middle" transform="matrix( 1.000 0.000 0.000 1.000 86.800 54.900 )">out box wall</text><path d="M 61.800 68.900 H 70.200 C 70.300 68.900 70.200 68.800 70.200 68.900 V 71.800 C 70.200 71.855 70.245 71.900 70.300 71.900 H 76.300 C 76.355 71.900 76.400 71.855 76.400 71.800 V 68.900 C 76.400 68.800 76.300 68.900 76.400 68.900 H 82.200 C 82.300 68.900 82.200 68.800 82.200 68.900 V 71.800 C 82.200 71.855 82.245 71.900 82.300 71.900 H 88.300 C 88.355 71.900 88.400 71.855 88.400 71.800 V 68.900 C 88.400 68.800 88.300 68.900 88.400 68.900 H 94.200 C 94.300 68.900 94.200 68.800 94.200 68.900 V 71.800 C 94.200 71.855 94.245 71.900 94.300 71.900 H 100.300 C 100.355 71.900 100.400 71.855 100.400 71.800 V 68.900 C 100.400 68.800 100.300 68.900 100.400 68.900 H 108.800 C 108.855 68.900 108.900 68.855 108.900 68.800 V 59.900 C 108.900 59.800 108.800 59.900 108.900 59.900 H 111.800 C 111.855 59.900 111.900 59.855 111.900 59.800 V 53.800 C 111.900 53.745 111.855 53.700 111.800 53.700 H 108.900 C 108.800 53.700 108.900 53.800 108.900 53.700 V 44.800 C 108.900 44.745 108.855 44.700 108.800 44.700 H 100.400 C 100.300 44.700 100.400 44.800 100.400 44.700 V 41.800 C 100.400 41.745 100.355 41.700 100.300 41.700 H 94.300 C 94.245 41.700 94.200 41.745 94.200 41.800 V 44.700 C 94.200 44.800 94.300 44.700 94.200 44.700 H 88.400 C 88.300 44.700 88.400 44.800 88.400 44.700 V 41.800 C 88.400 41.745 88.355 41.700 88.300 41.700 H 82.300 C 82.245 41.700 82.200 41.745 82.200 41.800 V 44.700 C 82.200 44.800 82.300 44.700 82.200 44.700 H 76.400 C 76.300 44.700 76.400 44.800 76.400 44.700 V 41.800 C 76.400 41.745 76.355 41.700 76.300 41.700 H 70.300 C 70.245 41.700 70.200 41.745 70.200 41.800 V 44.700 C 70.200 44.800 70.300 44.700 70.200 44.700 H 61.800 C 61.745 44.700 61.700 44.745 61.700 44.800 V 68.800 C 61.700 68.855 61.745 68.900 61.800 68.900" stroke="rgb(0,0,0)" stroke-width="0.20" />
</g>
<g id="p-9" style="fill:none;stroke-linecap:round;stroke-linejoin:round;">
  <text dominant-baseline="hanging" font-size="4px" style="font-family: sans-serif ; font-weight: normal; font-style: normal; fill: rgb(255,0,0)" text-anchor="middle" transform="matrix( 1.000 0.000 0.000 1.000 35.100 54.900 )">out box wall</text><path d="M 10.100 68.900 H 18.500 C 18.600 68.900 18.500 68.800 18.500 68.900 V 71.800 C 18.500 71.855 18.545 71.900 18.600 71.900 H 24.600 C 24.655 71.900 24.700 71.855 24.700 71.800 V 68.900 C 24.700 68.800 24.600 68.900 24.700 68.900 H 30.500 C 30.600 68.900 30.500 68.800 30.500 68.900 V 71.800 C 30.500 71.855 30.545 71.900 30.600 71.900 H 36.600 C 36.655 71.900 36.700 71.855 36.700 71.800 V 68.900 C 36.700 68.800 36.600 68.900 36.700 68.900 H 42.500 C 42.600 68.900 42.500 68.800 42.500 68.900 V 71.800 C 42.500 71.855 42.545 71.900 42.600 71.900 H 48.600 C 48.655 71.900 48.700 71.855 48.700 71.800 V 68.900 C 48.700 68.800 48.600 68.900 48.700 68.900 H 57.100 C 57.155 68.900 57.200 68.855 57.200 68.800 V 59.900 C 57.200 59.800 57.100 59.900 57.200 59.900 H 60.100 C 60.155 59.900 60.200 59.855 60.200 59.800 V 53.800 C 60.200 53.745 60.155 53.700 60.100 53.700 H 57.200 C 57.100 53.700 57.200 53.800 57.200 53.700 V 44.800 C 57.200 44.745 57.155 44.700 57.100 44.700 H 48.700 C 48.600 44.700 48.700 44.800 48.700 44.700 V 41.800 C 48.700 41.745 48.655 41.700 48.600 41.700 H 42.600 C 42.545 41.700 42.500 41.745 42.500 41.800 V 44.700 C 42.500 44.800 42.600 44.700 42.500 44.700 H 36.700 C 36.600 44.700 36.700 44.800 36.700 44.700 V 41.800 C 36.700 41.745 36.655 41.700 36.600 41.700 H 30.600 C 30.545 41.700 30.500 41.745 30.500 41.800 V 44.700 C 30.500 44.800 30.600 44.700 30.500 44.700 H 24.700 C 24.600 44.700 24.700 44.800 24.700 44.700 V 41.800 C 24.700 41.745 24.655 41.700 24.600 41.700 H 18.600 C 18.545 41.700 18.500 41.745 18.500 41.800 V 44.700 C 18.500 44.800 18.600 44.700 18.500 44.700 H 10.100 C 10.045 44.700 10.000 44.745 10.000 44.800 V 68.800 C 10.000 68.855 10.045 68.900 10.100 68.900" stroke="rgb(0,0,0)" stroke-width="0.20" />
</g>
<g id="p-10" style="fill:none;stroke-linecap:round;stroke-linejoin:round;">
  <text dominant-baseline="hanging" font-size="4px" style="font-family: sans-serif ; font-weight: normal; font-style: normal; fill: rgb(255,0,0)" text-anchor="middle" transform="matrix( 1.000 0.000 0.000 1.000 85.100 23.200 )">out box wall</text><path d="M 13.100 37.200 H 22.000 C 22.100 37.200 22.000 37.100 22.000 37.200 V 40.100 C 22.000 40.155 22.045 40.200 22.100 40.200 H 28.100 C 28.155 40.200 28.200 40.155 28.200 40.100 V 37.200 C 28.200 37.100 28.100 37.200 28.200 37.200 H 34.000 C 34.100 37.200 34.000 37.100 34.000 37.200 V 40.100 C 34.000 40.155 34.045 40.200 34.100 40.200 H 40.100 C 40.155 40.200 40.200 40.155 40.200 40.100 V 37.200 C 40.200 37.100 40.100 37.200 40.200 37.200 H 46.000 C 46.100 37.200 46.000 37.100 46.000 37.200 V 40.100 C 46.000 40.155 46.045 40.200 46.100 40.200 H 52.100 C 52.155 40.200 52.200 40.155 52.200 40.100 V 37.200 C 52.200 37.100 52.100 37.200 52.200 37.200 H 58.000 C 58.100 37.200 58.000 37.100 58.000 37.200 V 40.100 C 58.000 40.155 58.045 40.200 58.100 40.200 H 64.100 C 64.155 40.200 64.200 40.155 64.200 40.100 V 37.200 C 64.200 37.100 64.100 37.200 64.200 37.200 H 70.000 C 70.100 37.200 70.000 37.100 70.000 37.200 V 40.100 C 70.000 40.155 70.045 40.200 70.100 40.200 H 76.100 C 76.155 40.200 76.200 40.155 76.200 40.100 V 37.200 C 76.200 37.100 76.100 37.200 76.200 37.200 H 82.000 C 82.100 37.200 82.000 37.100 82.000 37.200 V 40.100 C 82.000 40.155 82.045 40.200 82.100 40.200 H 88.100 C 88.155 40.200 88.200 40.155 88.200 40.100 V 37.200 C 88.200 37.100 88.100 37.200 88.200 37.200 H 94.000 C 94.100 37.200 94.000 37.100 94.000 37.200 V 40.100 C 94.000 40.155 94.045 40.200 94.100 40.200 H 100.100 C 100.155 40.200 100.200 40.155 100.200 40.100 V 37.200 C 100.200 37.100 100.100 37.200 100.200 37.200 H 106.000 C 106.100 37.200 106.000 37.100 106.000 37.200 V 40.100 C 106.000 40.155 106.045 40.200 106.100 40.200 H 112.100 C 112.155 40.200 112.200 40.155 112.200 40.100 V 37.200 C 112.200 37.100 112.100 37.200 112.200 37.200 H 118.000 C 118.100 37.200 118.000 37.100 118.000 37.200 V 40.100 C 118.000 40.155 118.045 40.200 118.100 40.200 H 124.100 C 124.155 40.200 124.200 40.155 124.200 40.100 V 37.200 C 124.200 37.100 124.100 37.200 124.200 37.200 H 130.000 C 130.100 37.200 130.000 37.100 130.000 37.200 V 40.100 C 130.000 40.155 130.045 40.200 130.100 40.200 H 136.100 C 136.155 40.200 136.200 40.155 136.200 40.100 V 37.200 C 136.200 37.100 136.100 37.200 136.200 37.200 H 142.000 C 142.100 37.200 142.000 37.100 142.000 37.200 V 40.100 C 142.000 40.155 142.045 40.200 142.100 40.200 H 148.100 C 148.155 40.200 148.200 40.155 148.200 40.100 V 37.200 C 148.200 37.100 148.100 37.200 148.200 37.200 H 157.100 H 160.100 C 160.155 37.200 160.200 37.155 160.200 37.100 V 28.100 C 160.200 28.045 160.155 28.000 160.100 28.000 H 157.200 C 157.100 28.000 157.200 28.100 157.200 28.000 V 22.200 C 157.200 22.100 157.100 22.200 157.200 22.200 H 160.100 C 160.155 22.200 160.200 22.155 160.200 22.100 V 13.100 C 160.200 13.045 160.155 13.000 160.100 13.000 H 157.100 H 148.200 C 148.100 13.000 148.200 13.100 148.200 13.000 V 10.100 C 148.200 10.045 148.155 10.000 148.100 10.000 H 142.100 C 142.045 10.000 142.000 10.045 142.000 10.100 V 13.000 C 142.000 13.100 142.100 13.000 142.000 13.000 H 136.200 C 136.100 13.000 136.200 13.100 136.200 13.000 V 10.100 C 136.200 10.045 136.155 10.000 136.100 10.000 H 130.100 C 130.045 10.000 130.000 10.045 130.000 10.100 V 13.000 C 130.000 13.100 130.100 13.000 130.000 13.000 H 124.200 C 124.100 13.000 124.200 13.100 124.200 13.000 V 10.100 C 124.200 10.045 124.155 10.000 124.100 10.000 H 118.100 C 118.045 10.000 118.000 10.045 118.000 10.100 V 13.000 C 118.000 13.100 118.100 13.000 118.000 13.000 H 112.200 C 112.100 13.000 112.200 13.100 112.200 13.000 V 10.100 C 112.200 10.045 112.155 10.000 112.100 10.000 H 106.100 C 106.045 10.000 106.000 10.045 106.000 10.100 V 13.000 C 106.000 13.100 106.100 13.000 106.000 13.000 H 100.200 C 100.100 13.000 100.200 13.100 100.200 13.000 V 10.100 C 100.200 10.045 100.155 10.000 100.100 10.000 H 94.100 C 94.045 10.000 94.000 10.045 94.000 10.100 V 13.000 C 94.000 13.100 94.100 13.000 94.000 13.000 H 88.200 C 88.100 13.000 88.200 13.100 88.200 13.000 V 10.100 C 88.200 10.045 88.155 10.000 88.100 10.000 H 82.100 C 82.045 10.000 82.000 10.045 82.000 10.100 V 13.000 C 82.000 13.100 82.100 13.000 82.000 13.000 H 76.200 C 76.100 13.000 76.200 13.100 76.200 13.000 V 10.100 C 76.200 10.045 76.155 10.000 76.100 10.000 H 70.100 C 70.045 10.000 70.000 10.045 70.000 10.100 V 13.000 C 70.000 13.100 70.100 13.000 70.000 13.000 H 64.200 C 64.100 13.000 64.200 13.100 64.200 13.000 V 10.100 C 64.200 10.045 64.155 10.000 64.100 10.000 H 58.100 C 58.045 10.000 58.000 10.045 58.000 10.100 V 13.000 C 58.000 13.100 58.100 13.000 58.000 13.000 H 52.200 C 52.100 13.000 52.200 13.100 52.200 13.000 V 10.100 C 52.200 10.045 52.155 10.000 52.100 10.000 H 46.100 C 46.045 10.000 46.000 10.045 46.000 10.100 V 13.000 C 46.000 13.100 46.100 13.000 46.000 13.000 H 40.200 C 40.100 13.000 40.200 13.100 40.200 13.000 V 10.100 C 40.200 10.045 40.155 10.000 40.100 10.000 H 34.100 C 34.045 10.000 34.000 10.045 34.000 10.100 V 13.000 C 34.000 13.100 34.100 13.000 34.000 13.000 H 28.200 C 28.100 13.000 28.200 13.100 28.200 13.000 V 10.100 C 28.200 10.045 28.155 10.000 28.100 10.000 H 22.100 C 22.045 10.000 22.000 10.045 22.000 10.100 V 13.000 C 22.000 13.100 22.100 13.000 22.000 13.000 H 13.100 H 10.100 C 10.045 13.000 10.000 13.045 10.000 13.100 V 22.100 C 10.000 22.155 10.045 22.200 10.100 22.200 H 13.000 C 13.100 22.200 13.000 22.100 13.000 22.200 V 28.000 C 13.000 28.100 13.100 28.000 13.000 28.000 H 10.100 C 10.045 28.000 10.000 28.045 10.000 28.100 V 37.100 C 10.000 37.155 10.045 37.200 10.100 37.200 H 13.100" stroke="rgb(0,0,0)" stroke-width="0.20" />
</g>
</svg>